<mxfile host="app.diagrams.net" modified="2023-04-04T07:56:54.747Z" agent="Mozilla/5.0 (Windows NT 10.0; Win64; x64) AppleWebKit/537.36 (KHTML, like Gecko) Chrome/111.0.0.0 Safari/537.36 Edg/111.0.1661.62" version="21.1.1" etag="cZa3zC50NYTmSUegELh1" type="github">
  <diagram name="第 1 页" id="AsY_gFQ5mr0Ctpk5OMu_">
    <mxGraphModel>
      <root>
        <mxCell id="0" />
        <mxCell id="1" parent="0" />
      </root>
    </mxGraphModel>
  </diagram>
</mxfile>
